PathFileType	4	(X/Y/Z)	RBDS09\RBDS09runT25.trc
DataRate	CameraRate	NumFrames	NumMarkers	Units	OrigDataRate	OrigDataStartFrame	OrigNumFrames
150.000000	150.000000	5	33	mm	150.000000	2250	4500
Frame#	Time	L.ASIS			L.Heel.Bottom			L.Heel.Lateral			L.Heel.Top			L.Iliac.Crest			L.MT1			L.MT5			L.PSIS			L.Shank.Bottom.Lateral			L.Shank.Bottom.Medial			L.Shank.Top.Lateral			L.Shank.Top.Medial			L.Thigh.Bottom.Lateral			L.Thigh.Bottom.Medial			L.Thigh.Top.Lateral			L.Thigh.Top.Medial			R.ASIS			R.ASY			R.Heel.Bottom			R.Heel.Lateral			R.Heel.Top			R.Iliac.Crest			R.MT1			R.MT5			R.PSIS			R.Shank.Bottom.Lateral			R.Shank.Bottom.Medial			R.Shank.Top.Lateral			R.Shank.Top.Medial			R.Thigh.Bottom.Lateral			R.Thigh.Bottom.Medial			R.Thigh.Top.Lateral			R.Thigh.Top.Medial			
		X1	Y1	Z1	X2	Y2	Z2	X3	Y3	Z3	X4	Y4	Z4	X5	Y5	Z5	X6	Y6	Z6	X7	Y7	Z7	X8	Y8	Z8	X9	Y9	Z9	X10	Y10	Z10	X11	Y11	Z11	X12	Y12	Z12	X13	Y13	Z13	X14	Y14	Z14	X15	Y15	Z15	X16	Y16	Z16	X17	Y17	Z17	X18	Y18	Z18	X19	Y19	Z19	X20	Y20	Z20	X21	Y21	Z21	X22	Y22	Z22	X23	Y23	Z23	X24	Y24	Z24	X25	Y25	Z25	X26	Y26	Z26	X27	Y27	Z27	X28	Y28	Z28	X29	Y29	Z29	X30	Y30	Z30	X31	Y31	Z31	X32	Y32	Z32	X33	Y33	Z33	

2251	15	2217.482435860496	986.5592519378481	919.0385041198045	1680.894131835126	188.6794954509675	1018.330257528443	1712.193772597181	175.2593317635722	972.6787880284807	1718.017470877081	219.0991954784088	1008.526717291361	2170.733498012447	1050.367912279927	893.3491363655709	1847.659518788461	57.8651104307632	1045.667996020013	1802.21546079862	67.2592966788622	944.3640513079719	2062.611289210892	1029.7918785692	1017.298640702164	1802.207493856245	275.6424959758665	943.5524212346635	1774.862084998482	292.5750664860955	986.7271537711508	1831.881931128599	349.2072845291011	931.8665362956932	1805.380877572039	367.143288145638	975.0432212584362	2003.881247911312	663.6154370955762	915.3475238910822	1970.181025258128	679.4420437704852	978.2750655698128	2029.5702167569	770.7010472507176	904.7308580168753	2002.320666671266	784.6161635233724	967.3186691196453	2220.859315166355	998.7163273809871	1151.767737251704	2276.647094489042	150.0013346376385	1140.232739355427	2099.264426152275	144.3070044978825	1099.050853643952	2130.795490103482	149.7917040565384	1149.700075370231	2122.889735505587	186.7315906365614	1105.289162426197	2154.963488193514	1071.088180639608	1198.855225529717	2305.789655833906	99.34690961849245	1092.675319290332	2256.186465533084	87.78954894616454	1191.341328643133	2058.455099610116	1027.414548887658	1090.675435959295	2178.536048984762	270.6638327120682	1162.457841717829	2164.49833774817	279.8960129974648	1113.702006879977	2193.236202440823	353.8036904097224	1171.665376589976	2176.515937114792	359.392017872227	1121.580049963309	2296.509447722192	636.9935729004408	1198.474095035857	2241.446447405963	602.5156481274798	1165.136383631064	2231.571616791104	726.2883944089463	1209.50072167502	2180.699681494247	694.043583838863	1176.07380993961	
2252	15.00666666666667	2220.313376692879	988.7160799197105	919.3220436011053	1673.30409061686	200.3121673707576	1015.28656082848	1704.454516684088	185.6157176470224	969.9193120603785	1711.748471150162	229.2662138032305	1005.726744805301	2176.092843150879	1054.73058847793	894.2128654253829	1835.337560929898	62.79387435628527	1043.818840179253	1790.987237432749	73.31542601591731	942.4411034448802	2065.274242353336	1032.910060805644	1016.594102177632	1796.566338783308	282.6487827026152	941.4488193105715	1768.954512600088	300.0598184273163	984.2135625588089	1827.425915322439	355.7463537874086	929.974737714884	1800.619016513884	374.1608126565191	972.731335906273	2003.539499984961	668.1875051991151	914.9465092731178	1969.705507001689	684.7498270769256	977.6081467728999	2030.75841318175	774.8747120894178	904.1064397794094	2003.407942828234	789.4395407587832	966.4601235971356	2222.546474914598	1001.021430694981	1151.414626886923	2296.238783382397	146.7500188215466	1137.363710755478	2119.526615055486	131.3136433655766	1096.172945552976	2150.637532657374	138.2114482608218	1146.844276036841	2140.642200985176	174.9898068515071	1102.819779454565	2156.622234124906	1074.623142954744	1198.352483564749	2328.174722389222	98.51414179598756	1089.275150282913	2279.46505757822	83.01253089649535	1187.735484903187	2060.806988337474	1030.382894645491	1089.982928398143	2191.235378434081	262.3029724862059	1160.084591944201	2177.068220560661	271.0854875359046	1111.324252242843	2201.344411562885	346.0024115806289	1169.99501990221	2184.890657979628	351.0516131880912	1119.719968417214	2292.871446066247	635.7809660783905	1197.842839408247	2237.373735175787	602.1833125817349	1164.377758870304	2229.383809635746	726.2657081139682	1208.603820152688	2178.209894155449	694.9210959040845	1174.944567532193	
2253	15.01333333333333	2222.931473718112	990.6480733126417	919.597614916465	1665.840455045293	211.9832910021818	1012.612452594974	1696.769661193098	196.2154507247125	967.4705592021465	1705.459537707921	239.5477499654374	1003.344770905069	2180.742287520422	1058.705361806035	895.0937431293102	1823.201988819875	68.36045535593031	1041.957398297938	1779.879763546322	80.13822912624481	940.5763087211492	2067.671828534805	1035.523716251589	1015.869985985969	1791.214965032088	289.6225769162384	939.6103516747525	1763.407673384136	307.707500699259	981.9219276097457	1823.552000560189	362.062570111342	928.2343329435937	1796.567351239727	381.1357883252167	970.5623519659266	2004.249301223001	671.7363983982564	914.4386872957436	1969.995201496453	688.9765190483312	976.6727256320515	2032.605617117396	778.0970591895502	903.2959663917213	2004.861495028158	793.2865172573682	965.2772084816463	2224.047413209012	1002.848929773723	1151.074621459521	2314.881764061824	144.0954312894831	1134.442172399435	2139.324682670283	119.4242310374196	1093.132440576229	2169.986061912252	127.5812277667498	1143.834310021557	2157.972373613759	164.1468660618101	1100.232558112309	2158.076144232657	1077.3256201702	1197.902286006732	2349.381573907542	98.43908316159987	1085.815648107019	2301.749392365115	79.00127882962812	1184.018316744771	2062.930223055248	1032.798129460363	1089.27346902626	2203.450191842276	254.4720776822091	1157.61889148592	2189.145716029121	262.8667101008718	1108.873390861261	2209.039701548581	338.4623618696284	1168.254164814427	2192.87376480386	343.0466470132437	1117.785952149763	2288.734018345198	633.9329952945662	1197.295420966679	2233.00397596406	601.3532336888359	1163.327674712101	2226.784596345327	725.5821042101664	1207.797854326975	2175.416900119641	695.2646480816102	1173.697675654515	
2254	15.02	2225.351146512098	992.3200973172043	919.8956031302231	1658.509605879431	223.7325778413716	1010.348900309206	1689.13404549508	207.0618439103688	965.3588618491773	1699.167122513216	249.9714761840487	1001.381791510946	2184.630237209495	1062.235320071745	895.9552234630914	1811.235585631164	74.54439354349418	1040.10683488983	1768.840663921219	87.70060197028303	938.7809906113531	2069.797671161477	1037.602247847092	1015.117874479426	1786.116539453573	296.6282416276915	938.0405950609785	1758.249817708419	315.5498511817044	979.9114328083451	1820.226813777741	368.2048809483638	926.6817921658859	1793.241374323303	388.0886087298684	968.6126796256814	2006.003825424126	674.1604285109412	913.8099406245407	1971.078391505033	691.9909347879398	975.4843099258455	2035.091689966765	780.2818901002803	902.3078520170843	2006.682177440746	796.0479932791053	963.7990027448158	2225.336735503719	1004.192266394632	1150.806299235797	2332.371645603546	141.9733508725134	1131.551060593527	2158.380392055349	108.7078990942883	1089.884530164321	2188.554768187983	117.9421567012864	1140.649311722003	2174.637605732679	154.272823282532	1097.495086379422	2159.330231176307	1079.199214383515	1197.52107823817	2369.21526146	98.98708487432501	1082.40415403289	2322.744537367861	75.66444836878082	1180.258617052335	2064.806516369618	1034.64252483613	1088.544406161956	2215.003689873696	247.2215550948725	1155.047646611778	2200.569428605515	255.2764753028401	1106.32479466083	2216.193447940545	331.2613572803074	1166.389054332828	2200.325620790016	335.4409050179723	1115.732448068856	2284.205848392322	631.5744561601398	1196.824868419421	2228.45428038298	600.1299395308032	1161.989761597478	2223.843156731613	724.3251452978599	1207.090302978943	2172.402338765689	695.1415799691429	1172.344886962496	
2255	15.02666666666667	2227.591264396506	993.6937547888482	920.2422356704818	1651.372482014486	235.6224831411904	1008.498318205471	1681.600210079243	218.1749000536723	963.5791339971504	1692.950030939765	260.576894401923	999.8070995344349	2187.743512341361	1065.267704538436	896.7588690081362	1799.449304444722	81.31845818368637	1038.281073447472	1757.86209900405	95.96591457167044	937.0542198227585	2071.657075241814	1039.120261881478	1014.326255355965	1781.280649881209	303.7303421197787	936.7233934240559	1753.540214033369	323.6098408425065	978.2142717167817	1817.446316210993	374.2297142599927	925.3407039688277	1790.670392234637	395.0376597647257	966.9397230690348	2008.76340557028	675.3886493353112	913.064422089014	1972.970688426235	693.6865836659069	974.0897562444374	2038.166865194181	781.3706543792071	901.1747401370387	2008.86431188186	797.6334347814136	962.0912896618039	2226.39688164585	1005.051760943541	1150.663358199484	2348.507315547694	140.2766644191526	1128.77058724001	2176.403540875974	99.19055175099039	1086.396142879271	2206.044113625113	109.2940693982759	1137.279335959593	2190.385346559307	145.4010809251317	1094.584504858258	2160.383235942542	1080.274089875911	1197.217497830206	2387.485977172692	99.97316122433608	1079.141684745854	2342.154790476445	72.86469555079326	1176.526543809364	2066.429404997153	1035.905632261126	1087.788333125674	2225.715369620757	240.5688077462274	1152.361402716938	2211.184898168169	248.3192276378493	1103.655428875119	2222.679384656269	324.452682629802	1164.349203499045	2207.119703937135	328.2742331171171	1113.515055158489	2279.413505431293	628.8297595422966	1196.412556988482	2223.833581364068	598.6092017219731	1160.396718343279	2220.645881813656	722.5921095926963	1206.475122310489	2169.250894109965	694.6201924753208	1170.906817481323	
